<svg viewBox="0 0 20 20" fill="none" xmlns="http://www.w3.org/2000/svg"><g clip-path="url(#a)" fill="currentColor"><path d="m12.7 7.625-1.65 1.651V2a1.041 1.041 0 1 0-2.083 0v7.276L7.314 7.625a1.042 1.042 0 0 0-1.473 1.473l3.43 3.43a1.042 1.042 0 0 0 1.473 0l3.43-3.43A1.042 1.042 0 1 0 12.7 7.625Z"/><path d="M16.674 12.167c-.575 0-1.041.466-1.041 1.041v2.917H4.383v-2.917a1.042 1.042 0 0 0-2.084 0v3.125a1.875 1.875 0 0 0 1.875 1.875h11.667a1.875 1.875 0 0 0 1.875-1.875v-3.125c0-.575-.467-1.041-1.042-1.041Z"/></g><defs><clipPath id="a"><path fill="inherit" transform="translate(0 .5)" d="M0 0h20v20H0z"/></clipPath></defs></svg>
