<svg width="24" height="24" xmlns="http://www.w3.org/2000/svg"><path d="M9.883 8.578a.923.923 0 0 0-1.305 1.305l1.305-1.305Zm3.422 2.117-.652-.653.652.653Zm2.117-.812a.923.923 0 1 0-1.306-1.305l1.306 1.305Zm-4.345 1.194a.923.923 0 1 0 1.846 0h-1.846Zm1.846-4.615a.923.923 0 0 0-1.846 0h1.846Zm-4.985 7.2-.738.553.738-.553Zm1.108 1.476.739-.553-.739.553Zm5.908 0-.739-.553.739.553Zm1.107-1.476-.738-.554.738.553ZM8.578 9.883l1.464 1.464 1.305-1.305-1.464-1.464-1.305 1.305Zm5.38 1.464 1.464-1.464-1.306-1.305-1.463 1.464 1.305 1.305Zm-1.035-.27V6.462h-1.846v4.615h1.846Zm-2.881.27a2.77 2.77 0 0 0 3.916 0l-1.305-1.305a.923.923 0 0 1-1.306 0l-1.305 1.305Zm10.266 4.345v2.77h1.846v-2.77h-1.846Zm-1.846 4.616H5.538v1.846h12.924v-1.846Zm-14.77-1.846v-2.77H1.846v2.77h1.846Zm1.846-4.616h.923V12h-.923v1.846Zm1.662.37 1.108 1.476 1.477-1.107-1.108-1.477L7.2 14.215Zm10.338-.37h.924V12h-.924v1.846Zm-1.846 1.846 1.108-1.477-1.477-1.107-1.108 1.477 1.477 1.107ZM12 17.538c1.453 0 2.82-.683 3.692-1.846l-1.477-1.107A2.77 2.77 0 0 1 12 15.692v1.846ZM17.538 12a2.77 2.77 0 0 0-2.215 1.108l1.477 1.107a.923.923 0 0 1 .738-.369V12Zm-9.23 3.692A4.615 4.615 0 0 0 12 17.538v-1.846a2.77 2.77 0 0 1-2.215-1.107l-1.477 1.107ZM6.46 13.846c.291 0 .565.137.739.37l1.477-1.108A2.77 2.77 0 0 0 6.46 12v1.846Zm-.923 6.462a1.846 1.846 0 0 1-1.846-1.846H1.846a3.692 3.692 0 0 0 3.692 3.692v-1.846Zm14.77-1.846c0 1.02-.827 1.846-1.846 1.846v1.846a3.692 3.692 0 0 0 3.692-3.692h-1.846Zm1.846-2.77A3.692 3.692 0 0 0 18.462 12v1.846c1.02 0 1.846.827 1.846 1.846h1.846Zm-18.462 0c0-1.02.827-1.846 1.846-1.846V12a3.692 3.692 0 0 0-3.692 3.692h1.846Zm16.616-2.769V6.462h-1.846v6.461h1.846ZM15.692 1.846H8.308v1.846h7.384V1.846Zm-12 4.616v6.461h1.846V6.462H3.692Zm4.616-4.616a4.615 4.615 0 0 0-4.616 4.616h1.846a2.77 2.77 0 0 1 2.77-2.77V1.846Zm12 4.616a4.615 4.615 0 0 0-4.616-4.616v1.846a2.77 2.77 0 0 1 2.77 2.77h1.846Z"/></svg>
