<svg viewBox="0 0 32 32" fill="none" xmlns="http://www.w3.org/2000/svg"><g clip-path="url(#a)"><rect width="32" height="32" rx="4" fill="#A32912"/><path d="M32 0 0 32V0h32Z" fill="#0369A1"/><mask id="b" maskUnits="userSpaceOnUse" x="1.333" y="3.667" width="18" height="13" fill="#000"><path fill="#fff" d="M1.333 3.667h18v13h-18z"/><path d="m5.74 12.312 2.875-7.828h3.546l.128 7.828h.16l2.812-7.828h3.035l-4.281 11.183H9.94l-.128-7.509h-.16l-2.747 7.509H2.992L2.64 4.484h2.876l.064 7.828h.16Z"/></mask><path d="m5.74 12.312 2.875-7.828h3.546l.128 7.828h.16l2.812-7.828h3.035l-4.281 11.183H9.94l-.128-7.509h-.16l-2.747 7.509H2.992L2.64 4.484h2.876l.064 7.828h.16Z" fill="#fff"/><path d="M5.74 12.312v.592h.413l.142-.388-.555-.204Zm2.875-7.828v-.591h-.413l-.142.387.555.204Zm3.546 0 .592-.01-.01-.581h-.582v.591Zm.128 7.828-.591.01.01.582h.581v-.592Zm.16 0v.592h.416l.14-.392-.556-.2Zm2.812-7.828v-.591h-.416l-.141.391.557.2Zm3.035 0 .553.212.307-.803h-.86v.591Zm-4.281 11.183v.591h.407l.145-.38-.552-.211Zm-4.074 0-.592.01.01.581h.582v-.591Zm-.128-7.509.592-.01-.01-.581h-.582v.591Zm-.16 0v-.591H9.24l-.142.388.555.203Zm-2.747 7.509v.591h.413l.142-.388-.555-.203Zm-3.914 0-.592.018.018.573h.574v-.591ZM2.64 4.484v-.591h-.61l.019.61.591-.019Zm2.876 0 .592-.005-.005-.586h-.587v.591Zm.064 7.828-.592.005.005.587h.587v-.592Zm.715.204L9.17 4.688 8.06 4.28l-2.876 7.828 1.11.408Zm2.32-7.44h3.546V3.893H8.616v1.183Zm2.955-.582.128 7.828 1.183-.02-.128-7.827-1.183.019Zm.72 8.41h.16V11.72h-.16v1.184Zm.716-.392 2.812-7.828-1.114-.4-2.812 7.828 1.114.4Zm2.255-7.436h3.035V3.893H15.26v1.183Zm2.482-.803-4.281 11.182 1.105.423L18.85 4.696l-1.106-.423Zm-3.728 10.802H9.94v1.183h4.074v-1.183Zm-3.482.582-.128-7.509-1.183.02.127 7.509 1.184-.02Zm-.72-8.09h-.16V8.75h.16V7.567Zm-.715.388L6.35 15.463l1.111.407 2.748-7.508-1.111-.407Zm-2.192 7.12H2.992v1.183h3.914v-1.183Zm-3.323.573L3.232 4.466l-1.183.037.351 11.182 1.183-.037ZM2.64 5.076h2.876V3.893H2.64v1.183Zm2.284-.587.064 7.828 1.183-.01-.063-7.828-1.184.01Zm.656 8.415h.16V11.72h-.16v1.184Z" fill="#000" mask="url(#b)"/><mask id="c" maskUnits="userSpaceOnUse" x="15.667" y="15" width="15" height="15" fill="#000"><path fill="#fff" d="M15.667 15h15v15h-15z"/><path d="M24.022 19.46h-2.466l-.54 3.06h3.006c.576 0 1.026-.15 1.35-.45.324-.3.486-.702.486-1.206 0-.408-.156-.744-.468-1.008-.3-.264-.756-.396-1.368-.396Zm-5.256-3.06h5.706c1.44 0 2.604.414 3.492 1.242.9.828 1.35 1.83 1.35 3.006 0 1.38-.522 2.55-1.566 3.51-1.044.948-2.334 1.422-3.87 1.422h-3.384L19.882 29h-3.33l2.214-12.6Z"/></mask><path d="M24.022 19.46h-2.466l-.54 3.06h3.006c.576 0 1.026-.15 1.35-.45.324-.3.486-.702.486-1.206 0-.408-.156-.744-.468-1.008-.3-.264-.756-.396-1.368-.396Zm-5.256-3.06h5.706c1.44 0 2.604.414 3.492 1.242.9.828 1.35 1.83 1.35 3.006 0 1.38-.522 2.55-1.566 3.51-1.044.948-2.334 1.422-3.87 1.422h-3.384L19.882 29h-3.33l2.214-12.6Z" fill="#fff"/><path d="M21.556 19.46v-.592h-.496l-.087.49.583.102Zm-.54 3.06-.583-.103-.122.695h.705v-.592Zm4.374-2.664L25 20.3l.008.008.382-.452ZM18.766 16.4v-.592h-.497l-.086.49.583.102Zm9.198 1.242-.403.433.003.002.4-.435Zm-.216 6.516.398.438.002-.003-.4-.435Zm-7.254 1.422v-.592H20l-.087.488.582.104ZM19.882 29v.592h.495l.088-.488-.583-.104Zm-3.33 0-.583-.102-.122.694h.705V29Zm7.47-10.132h-2.466v1.184h2.466v-1.184Zm-3.049.49-.54 3.06 1.166.205.54-3.06-1.166-.206Zm.043 3.754h3.006v-1.184h-3.006v1.184Zm3.006 0c.678 0 1.289-.179 1.752-.608l-.804-.868c-.184.17-.474.292-.948.292v1.184Zm1.752-.608c.463-.428.676-.997.676-1.64h-1.184c0 .365-.11.6-.296.772l.804.868Zm.676-1.64c0-.582-.233-1.084-.678-1.46l-.764.904c.18.151.258.322.258.556h1.184Zm-.67-1.452c-.452-.399-1.076-.544-1.758-.544v1.184c.542 0 .83.119.977.248l.782-.888Zm-7.014-2.42h5.706v-1.184h-5.706v1.184Zm5.706 0c1.32 0 2.33.375 3.089 1.083l.806-.866c-1.017-.948-2.335-1.4-3.895-1.4v1.183Zm3.091 1.085c.784.721 1.16 1.568 1.16 2.571h1.183c0-1.349-.525-2.506-1.541-3.441l-.801.87Zm1.16 2.571c0 1.21-.45 2.223-1.375 3.075l.8.87c1.163-1.068 1.758-2.394 1.758-3.945h-1.184ZM27.35 23.72c-.925.84-2.069 1.268-3.472 1.268v1.184c1.669 0 3.105-.52 4.268-1.576l-.796-.876Zm-3.472 1.268h-3.384v1.184h3.384v-1.184Zm-3.966.488-.612 3.42 1.165.208.611-3.42-1.164-.208Zm-.03 2.932h-3.33v1.184h3.33v-1.184Zm-2.747.694 2.214-12.6-1.166-.204-2.214 12.6 1.166.204Z" fill="#000" mask="url(#c)"/><path d="M31.333.667.667 31.333" stroke="#000"/><path d="M29.9 8.706s-.003-.004-.013-.01h-.02c-.034-.001-.085.002-.16.01a7.726 7.726 0 0 0-.739.14c-.193.043-.358.08-.494.096-.166.02-.337.017-.498-.073-.153-.086-.258-.228-.352-.384a9.274 9.274 0 0 1-.277-.521l-.06-.119c-.453-.876-.768-1.336-1.348-1.963h-.001c-1.283-1.397-3.272-2.085-5.522-1.874a10 10 0 0 0-.121.014c.155.094.345.205.565.328.763.424 1.28.749 1.68 1.11.407.366.684.76.986 1.303.186.33.437.977.63 1.556.097.294.183.578.24.806.03.113.052.218.066.304.006.043.011.086.013.126a.47.47 0 0 1-.113.332.564.564 0 0 1-.186.13 3.612 3.612 0 0 1-.57.175 4.28 4.28 0 0 0-.778.261c-.07.034-.12.063-.153.087a.37.37 0 0 0 .038.054l.003.003.044.035c.038.03.09.068.155.116.13.096.31.226.527.38.432.306 1.009.707 1.622 1.126.99.671 1.551 1.047 1.888 1.25a2.246 2.246 0 0 0 .35.181 2.054 2.054 0 0 0 .21-.305c.192-.316.49-.872 1.008-1.858l.29-.555c.526-1.01.962-1.846 1.028-1.977.066-.133.075-.219.07-.26-.003-.017-.008-.023-.008-.024Zm-7.269 1.872.002-.002a.008.008 0 0 0-.002.002Zm4.69 3.112Z" fill="#fff" stroke="#000" stroke-width=".53"/></g><rect x=".5" y=".5" width="31" height="31" rx="3.5" stroke="#000"/><defs><clipPath id="a"><rect width="32" height="32" rx="4" fill="#fff"/></clipPath></defs></svg>
